/* XPM */
static char * folder_untested_xpm[] = {
"16 16 2 1",
" 	c Gray100",
".	c Blue",
"     ......     ",
"   .........    ",
"   ..     ...   ",
"   ..      ..   ",
"   ..     ...   ",
"         ...    ",
"        ...     ",
"       ...      ",
"      ...       ",
"      ..        ",
"      ..        ",
"      ..        ",
"      ..        ",
"                ",
"      ..        ",
"      ..        "};
