/* XPM */
static char * ti_enumeration_xpm[] = {
"16 16 2 1",
" 	c Gray100",
".	c Black",
"                ",
"                ",
"                ",
"    ........    ",
"     ..   ..    ",
"     ..         ",
"     .. ..      ",
"     .....      ",
"     .. ..      ",
"     ..         ",
"     ..         ",
"     ..   ..    ",
"    ........    ",
"                ",
"                ",
"                "};
