/* XPM */
static char * ti_interface_xpm[] = {
"16 16 2 1",
" 	c Gray100",
".	c Black",
"                ",
"                ",
"                ",
"     ......     ",
"       ..       ",
"       ..       ",
"       ..       ",
"       ..       ",
"       ..       ",
"       ..       ",
"       ..       ",
"       ..       ",
"     ......     ",
"                ",
"                ",
"                "};
