/* XPM */
static char * run_xpm[] = {
"16 15 2 1",
" 	c #c0c0c0",
".	c #008000",
"              ..",
"             ...",
"             .. ",
"            ... ",
"            ..  ",
"           ...  ",
"           ..   ",
".         ...   ",
"..        ..    ",
"...      ...    ",
" ...     ..     ",
"  ...   ...     ",
"   ...  ..      ",
"    ......      ",
"     ....       "};
