/* XPM */
static char * text_ct_1616_xpm[] = {
"16 15 2 1",
" 	c #c0c0c0",
".	c Black",
"                ",
"                ",
"                ",
"   ....  ...... ",
"  ..  ..   ..   ",
" ..        ..   ",
" ..        ..   ",
" ..        ..   ",
" ..        ..   ",
" ..        ..   ",
"  ..  ..   ..   ",
"   ....    ..   ",
"                ",
"                ",
"                "};
